HIERARCHY
ROOT root
{
	OFFSET	0.00	0.00	0.00
	CHANNELS 6 Xposition Yposition Zposition Zrotation Xrotation Yrotation
	JOINT back
	{
		OFFSET	 0.496199	-0.006268	-0.001552
		CHANNELS 3 Zrotation Xrotation Yrotation
		JOINT chest
		{
			OFFSET	 0.264817	 0.004177	 0.000000
			CHANNELS 3 Zrotation Xrotation Yrotation
			JOINT l_clavicle
			{
				OFFSET	 0.114550	 0.000716	-0.065320
				CHANNELS 3 Zrotation Xrotation Yrotation
				JOINT l_end_clavicle
				{
					OFFSET	 0.162817	-0.003802	 0.000068
					CHANNELS 3 Zrotation Xrotation Yrotation
					JOINT l_shoulder
					{
						OFFSET	 0.037056	 0.008246	 0.039786
						CHANNELS 3 Zrotation Xrotation Yrotation
						JOINT l_forearm
						{
							OFFSET	 0.305643	 0.056699	-0.008461
							CHANNELS 3 Zrotation Xrotation Yrotation
							JOINT l_end_wrist
							{
								OFFSET	 0.317021	-0.006522	 0.006333
								CHANNELS 3 Zrotation Xrotation Yrotation
								JOINT l_index1
								{
									OFFSET	 0.152748	-0.021000	-0.014320
									CHANNELS 3 Zrotation Xrotation Yrotation
									JOINT l_index2
									{
										OFFSET	 0.039283	 0.000000	 0.000000
										CHANNELS 3 Zrotation Xrotation Yrotation
										JOINT l_index3
										{
											OFFSET	 0.038151	 0.000000	 0.000000
											CHANNELS 3 Zrotation Xrotation Yrotation
											End Site
											{
												OFFSET	 0.038151	 0.000000	 0.000000
											}
										}
									}
								}
								JOINT l_middle1
								{
									OFFSET	 0.151723	 0.016194	-0.014667
									CHANNELS 3 Zrotation Xrotation Yrotation
									JOINT l_middle_2
									{
										OFFSET	 0.038268	 0.000000	 0.000000
										CHANNELS 3 Zrotation Xrotation Yrotation
										JOINT l_middle_3
										{
											OFFSET	 0.039743	 0.000000	 0.000000
											CHANNELS 3 Zrotation Xrotation Yrotation
											End Site
											{
												OFFSET	 0.039743	 0.000000	 0.000000
											}
										}
									}
								}
								JOINT l_pinky1
								{
									OFFSET	 0.117088	 0.077397	-0.013819
									CHANNELS 3 Zrotation Xrotation Yrotation
									JOINT l_pinky2
									{
										OFFSET	 0.028938	 0.000000	 0.000000
										CHANNELS 3 Zrotation Xrotation Yrotation
										JOINT l_pinky3
										{
											OFFSET	 0.027080	 0.000000	 0.000000
											CHANNELS 3 Zrotation Xrotation Yrotation
											End Site
											{
												OFFSET	 0.027080	 0.000000	 0.000000
											}
										}
									}
								}
								JOINT l_ring1
								{
									OFFSET	 0.137788	 0.047650	-0.014135
									CHANNELS 3 Zrotation Xrotation Yrotation
									JOINT l_ring2
									{
										OFFSET	 0.030749	 0.000000	 0.000000
										CHANNELS 3 Zrotation Xrotation Yrotation
										JOINT l_ring3
										{
											OFFSET	 0.032711	 0.000000	 0.000000
											CHANNELS 3 Zrotation Xrotation Yrotation
											End Site
											{
												OFFSET	 0.032711	 0.000000	 0.000000
											}
										}
									}
								}
								JOINT l_thumb1
								{
									OFFSET	 0.054053	-0.036728	-0.011261
									CHANNELS 3 Zrotation Xrotation Yrotation
									JOINT l_thumb_2
									{
										OFFSET	 0.051141	-0.005593	-0.001180
										CHANNELS 3 Zrotation Xrotation Yrotation
										JOINT l_thumb_3
										{
											OFFSET	 0.046421	-0.001905	 0.000191
											CHANNELS 3 Zrotation Xrotation Yrotation
											End Site
											{
												OFFSET	 0.046421	-0.001905	 0.000191
											}
										}
									}
								}
							}
						}
					}
				}
			}
			JOINT neck
			{
				OFFSET	 0.143918	 0.000470	 0.000000
				CHANNELS 3 Zrotation Xrotation Yrotation
				JOINT head
				{
					OFFSET	 0.002403	 0.030885	 0.063438
					CHANNELS 3 Zrotation Xrotation Yrotation
					End Site
					{
						OFFSET	 0.002403	 0.030885	 0.063438
					}
				}
			}
			JOINT r_clavicle
			{
				OFFSET	 0.114552	 0.000716	 0.065320
				CHANNELS 3 Zrotation Xrotation Yrotation
				JOINT r_end_clavicle
				{
					OFFSET	-0.162817	 0.003801	-0.000067
					CHANNELS 3 Zrotation Xrotation Yrotation
					JOINT r_shoulder
					{
						OFFSET	-0.019809	 0.045825	-0.023036
						CHANNELS 3 Zrotation Xrotation Yrotation
						JOINT r_forearm
						{
							OFFSET	-0.238775	 0.134360	 0.217987
							CHANNELS 3 Zrotation Xrotation Yrotation
							JOINT r_end_wrist
							{
								OFFSET	-0.317022	 0.006522	-0.006331
								CHANNELS 3 Zrotation Xrotation Yrotation
								JOINT r_index1
								{
									OFFSET	-0.152748	 0.021000	 0.014322
									CHANNELS 3 Zrotation Xrotation Yrotation
									JOINT r_index2
									{
										OFFSET	-0.039280	 0.000000	-0.000001
										CHANNELS 3 Zrotation Xrotation Yrotation
										JOINT r_index3
										{
											OFFSET	-0.038152	 0.000000	-0.000001
											CHANNELS 3 Zrotation Xrotation Yrotation
											End Site
											{
												OFFSET	-0.038152	 0.000000	-0.000001
											}
										}
									}
								}
								JOINT r_middle1
								{
									OFFSET	-0.151722	-0.016194	 0.014664
									CHANNELS 3 Zrotation Xrotation Yrotation
									JOINT r_middle_2
									{
										OFFSET	-0.038270	 0.000000	 0.000003
										CHANNELS 3 Zrotation Xrotation Yrotation
										JOINT r_middle_3
										{
											OFFSET	-0.039744	 0.000000	 0.000000
											CHANNELS 3 Zrotation Xrotation Yrotation
											End Site
											{
												OFFSET	-0.039744	 0.000000	 0.000000
											}
										}
									}
								}
								JOINT r_pinky1
								{
									OFFSET	-0.117090	-0.077397	 0.013818
									CHANNELS 3 Zrotation Xrotation Yrotation
									JOINT r_pinky2
									{
										OFFSET	-0.028938	 0.000000	 0.000000
										CHANNELS 3 Zrotation Xrotation Yrotation
										JOINT r_pinky3
										{
											OFFSET	-0.027079	-0.000001	 0.000000
											CHANNELS 3 Zrotation Xrotation Yrotation
											End Site
											{
												OFFSET	-0.027079	-0.000001	 0.000000
											}
										}
									}
								}
								JOINT r_ring1
								{
									OFFSET	-0.137790	-0.047650	 0.014136
									CHANNELS 3 Zrotation Xrotation Yrotation
									JOINT r_ring2
									{
										OFFSET	-0.030748	 0.000000	-0.000001
										CHANNELS 3 Zrotation Xrotation Yrotation
										JOINT r_ring3
										{
											OFFSET	-0.032707	-0.000001	 0.000003
											CHANNELS 3 Zrotation Xrotation Yrotation
											End Site
											{
												OFFSET	-0.032707	-0.000001	 0.000003
											}
										}
									}
								}
								JOINT r_thumb1
								{
									OFFSET	-0.054054	 0.036728	 0.011262
									CHANNELS 3 Zrotation Xrotation Yrotation
									JOINT r_thumb_2
									{
										OFFSET	-0.051140	 0.005594	 0.001177
										CHANNELS 3 Zrotation Xrotation Yrotation
										JOINT r_thumb_3
										{
											OFFSET	-0.046419	 0.001906	-0.000190
											CHANNELS 3 Zrotation Xrotation Yrotation
											End Site
											{
												OFFSET	-0.046419	 0.001906	-0.000190
											}
										}
									}
								}
							}
						}
					}
				}
			}
		}
	}
	JOINT Pelvis
	{
		OFFSET	 0.153525	-0.004550	-0.002747
		CHANNELS 3 Zrotation Xrotation Yrotation
		JOINT l_thigh
		{
			OFFSET	 0.153975	-0.126465	 0.007173
			CHANNELS 3 Zrotation Xrotation Yrotation
			End Site
			{
				OFFSET	 0.153975	-0.126465	 0.007173
			}
		}
		JOINT r_thigh
		{
			OFFSET	 0.145518	 0.135977	 0.006943
			CHANNELS 3 Zrotation Xrotation Yrotation
			End Site
			{
				OFFSET	 0.145518	 0.135977	 0.006943
			}
		}
	}
}
MOTION
Frames:    5
Frame Time: 0.01666667
 0.156168	-0.039172	 0.046015	-83.855700	 20.542460	-91.942810	-10.119420	-0.307958	-3.162715	-9.025664	-1.641201	-2.933014	 2.073926	-9.628619	 105.635100	-0.813313	 0.122417	-8.559153	-37.803500	-28.214570	 11.632060	-68.906500	 22.547130	-1.116956	-16.133110	 25.736610	-21.945630	-10.264620	-3.347504	 49.384050	 2.465969	-1.147655	 53.529890	 2.448260	 1.021002	-43.632730	-0.680045	 1.020555	 40.404740	-0.239723	 3.157919	 21.635580	 2.666140	 5.020286	-60.111700	 35.405960	 18.878470	 20.462450	-6.694960	 19.242130	 17.766130	-5.647319	 19.246370	-70.640630	 16.861140	 9.384348	 31.342690	-3.778827	 9.430041	 23.403520	-0.512125	 10.301720	-64.843220	-36.716160	-2.656306	 27.816180	 15.609720	-0.539451	 0.135676	 16.990000	-0.375347	 3.456630	 0.948139	-2.659037	 90.195110	-90.440330	 3.437949	-114.422300	-178.433700	-7.745706	 103.751300	-0.813313	 0.122417	-8.559153	-37.328510	-28.500880	 8.579834	-75.378690	 20.742940	-2.459724	 3.278689	 21.622390	-1.878504	-10.748860	-3.775595	 50.546510	 2.465562	-1.147989	 54.141880	 2.503628	 0.963151	-45.179620	 1.124164	 2.418592	 39.908490	-0.227263	 3.163404	 26.207610	 2.878220	 4.438382	-68.852690	 43.507540	 21.985860	 14.839270	-6.653485	 19.256210	 20.092090	-5.947649	 19.307890	-85.681140	 21.490430	 12.080550	 25.108250	-3.761625	 9.438097	 25.551490	-0.490087	 10.157400	-68.213530	-51.617570	-12.041390	-7.588032	 16.019230	-0.540265	 0.139183	 43.138540	-0.402263	 3.690641	 0.000000	 90.000000	 0.000000	 171.092500	 1.516435	 161.405200	 177.570600	-12.266630	-26.352960
 0.138264	-0.055715	 0.039692	-88.666860	 17.770470	-91.625490	-9.739482	-0.179965	-3.703452	-8.671482	-1.280891	-3.453522	 1.799246	-8.326421	 105.739200	-0.813313	 0.122417	-8.559153	-27.352860	-21.862100	 28.290430	-76.976290	 21.890070	 1.042738	-5.788248	 23.569370	-27.952030	-10.298920	-3.377489	 49.455570	 2.465966	-1.147659	 53.535130	 2.451995	 1.017194	-43.735690	-0.542314	 1.128196	 40.356990	-0.239111	 3.158163	 21.856590	 2.686297	 4.975147	-60.808980	 36.046000	 19.158380	 20.024340	-6.693111	 19.242690	 17.868450	-5.670441	 19.248300	-71.775760	 17.214710	 9.614953	 30.884820	-3.778402	 9.430223	 23.455050	-0.509682	 10.288470	-65.153430	-39.079850	-5.141591	 21.271700	 15.690120	-0.539589	 0.136363	 22.061990	-0.388957	 3.500669	 0.898524	-2.441629	 90.171490	-90.801990	 2.158410	-112.537700	-178.756000	-6.002267	 104.346100	-0.813313	 0.122417	-8.559153	-26.747240	-21.540730	 19.688910	-79.539070	 19.147620	-0.508696	 9.112710	 19.636120	-4.947332	-10.738210	-3.763812	 50.663440	 2.465441	-1.148153	 54.368960	 2.500082	 0.966952	-45.079300	 0.995438	 2.321810	 40.056390	-0.226364	 3.163850	 26.545090	 2.864342	 4.486806	-68.142650	 42.638580	 21.692480	 15.327220	-6.647323	 19.258330	 20.438020	-5.930032	 19.302090	-84.769550	 20.963770	 11.798890	 25.486650	-3.758524	 9.439557	 25.932290	-0.492985	 10.179730	-67.694680	-48.318850	-10.971980	-0.442475	 15.939790	-0.540129	 0.138503	 38.066500	-0.405458	 3.644677	 0.000000	 90.000000	 0.000000	 170.234600	 0.139202	 162.213300	 179.062800	-13.707490	-25.099120
 0.131935	-0.058610	 0.038002	-89.915360	 17.011590	-91.706210	-9.560947	-0.150284	-3.829204	-8.517141	-1.168834	-3.567780	 1.692701	-7.812447	 105.824000	-0.813313	 0.122417	-8.559153	-24.289420	-18.933990	 33.173070	-79.365240	 21.403130	 1.787560	-2.868292	 22.558780	-29.852200	-10.310030	-3.387219	 49.478710	 2.465965	-1.147660	 53.536830	 2.453204	 1.015959	-43.769050	-0.497925	 1.162848	 40.341480	-0.238913	 3.158242	 21.928250	 2.692669	 4.960560	-61.033490	 36.244880	 19.244210	 19.884600	-6.692514	 19.242870	 17.901500	-5.677885	 19.249020	-72.141560	 17.323830	 9.685378	 30.737190	-3.778262	 9.430280	 23.471840	-0.508914	 10.284210	-65.253100	-39.911220	-5.889345	 19.118800	 15.716380	-0.539644	 0.136589	 23.702380	-0.392522	 3.515150	 0.881525	-2.128591	 90.163310	-90.709810	 1.311265	-112.197700	-178.853900	-5.468827	 104.658100	-0.813313	 0.122417	-8.559153	-23.966530	-18.905860	 23.331080	-79.647630	 19.086040	 0.296729	 10.853920	 19.404250	-6.109806	-10.734450	-3.759581	 50.709180	 2.465380	-1.148237	 54.485310	 2.498704	 0.968426	-45.040360	 0.936946	 2.277507	 40.115260	-0.225813	 3.164127	 26.752440	 2.857592	 4.509572	-67.807920	 42.248870	 21.557930	 15.536670	-6.643989	 19.259500	 20.625580	-5.922054	 19.299570	-84.358470	 20.732450	 11.674000	 25.664760	-3.756615	 9.440468	 26.167210	-0.494415	 10.190200	-67.451310	-47.277100	-10.540000	 1.847914	 15.914110	-0.540084	 0.138282	 36.426100	-0.405611	 3.629772	 0.000000	 90.000000	 0.000000	 169.715900	-0.223568	 162.949100	 179.465200	-13.927610	-24.329170
 0.124347	-0.061085	 0.036039	-91.347130	 16.088050	-91.761510	-9.355045	-0.128828	-3.872679	-8.347428	-1.089958	-3.600427	 1.568934	-7.203991	 105.991200	-0.813313	 0.122417	-8.559153	-21.094750	-15.244160	 38.858510	-82.307670	 20.782180	 2.652304	 0.644860	 21.250270	-31.844830	-10.323510	-3.399039	 49.506680	 2.465964	-1.147662	 53.538890	 2.454671	 1.014459	-43.809560	-0.444276	 1.204702	 40.322630	-0.238673	 3.158338	 22.015350	 2.700291	 4.942907	-61.304680	 36.489520	 19.348940	 19.713510	-6.691793	 19.243100	 17.941520	-5.686872	 19.249940	-72.583710	 17.457780	 9.771242	 30.557490	-3.778094	 9.430355	 23.492320	-0.507996	 10.279080	-65.373250	-40.960160	-6.755098	 16.484550	 15.748500	-0.539696	 0.136864	 25.691350	-0.396285	 3.532837	 0.860884	-1.765470	 90.153730	-90.530140	 0.635086	-111.753200	-178.983300	-4.784382	 105.082400	-0.813313	 0.122417	-8.559153	-20.868770	-15.433530	 27.244370	-79.577200	 18.964800	 1.271053	 12.950990	 19.023000	-7.567620	-10.729540	-3.753976	 50.772730	 2.465291	-1.148361	 54.655330	 2.496797	 0.970461	-44.986520	 0.861945	 2.220675	 40.197380	-0.224962	 3.164560	 27.073410	 2.848654	 4.538986	-67.374570	 41.635950	 21.342730	 15.853610	-6.638986	 19.261280	 20.907540	-5.911814	 19.296420	-83.832240	 20.371490	 11.476810	 25.925740	-3.753666	 9.441895	 26.531180	-0.496331	 10.203720	-67.136590	-46.036130	-9.961533	 4.608328	 15.882950	-0.540031	 0.138015	 34.437130	-0.405242	 3.611703	 0.000000	 90.000000	 0.000000	 169.117500	-0.618779	 163.762900	 179.887900	-14.150900	-23.273740
 0.117661	-0.062970	 0.034001	-92.405890	 15.112420	-91.818360	-9.212543	-0.102009	-4.032298	-8.241653	-1.062019	-3.748173	 1.469716	-6.725212	 106.109500	-0.813313	 0.122417	-8.559153	-19.061780	-12.233450	 42.171610	-84.757720	 20.302490	 3.352972	 3.449888	 20.189130	-33.427320	-10.334430	-3.408621	 49.529370	 2.465963	-1.147663	 53.540540	 2.455859	 1.013243	-43.842380	-0.401013	 1.238432	 40.307330	-0.238478	 3.158418	 22.086070	 2.706369	 4.928661	-61.523130	 36.686490	 19.432630	 19.574950	-6.691211	 19.243280	 17.973880	-5.694116	 19.250730	-72.940250	 17.565310	 9.839752	 30.411870	-3.777955	 9.430411	 23.509030	-0.507268	 10.274950	-65.469830	-41.840400	-7.421114	 14.333550	 15.774770	-0.539747	 0.137088	 27.301220	-0.398873	 3.547238	 0.843996	-1.430451	 90.146000	-90.299450	 0.434749	-111.257400	-179.097300	-4.205394	 105.415700	-0.813313	 0.122417	-8.559153	-18.603200	-12.526840	 30.066270	-79.217340	 18.922820	 2.021945	 14.581200	 18.723630	-8.765158	-10.725220	-3.748988	 50.831760	 2.465211	-1.148472	 54.807960	 2.495033	 0.972342	-44.936740	 0.792836	 2.168170	 40.274040	-0.224204	 3.164950	 27.359650	 2.840156	 4.566235	-66.972180	 41.071880	 21.141230	 16.144930	-6.634588	 19.262860	 21.155630	-5.902364	 19.293590	-83.347790	 20.041880	 11.294680	 26.158140	-3.751043	 9.443183	 26.855850	-0.498176	 10.216260	-66.844640	-45.052000	-9.450559	 6.827901	 15.857740	-0.539993	 0.137798	 32.827230	-0.404467	 3.597094	 0.000000	 90.000000	 0.000000	 168.684100	-0.902889	 164.332800	-179.819100	-14.535830	-22.431130
